<!DOCTYPE svg PUBLIC "-//W3C//DTD SVG 1.1//EN" "http://www.w3.org/Graphics/SVG/1.1/DTD/svg11.dtd"><svg width="16px" height="16px" viewBox="0 0 16 16" version="1.1" xmlns="http://www.w3.org/2000/svg" xmlns:xlink="http://www.w3.org/1999/xlink">
    <title>编组 19</title>
    
    <g id="页面-1" stroke="none" stroke-width="1" fill="currentColor" fill-rule="evenodd">
        <g id="侧边栏图标切图" transform="translate(-31.000000, -146.000000)">
            
            <g id="Rectangle-8-Copy-2备份-12">
                <use fill="#303133" xlink:href="#path-1"></use>
                <use fill-opacity="0.04" fill="#FFFFFF" xlink:href="#path-1"></use>
            </g>
            <g id="编组-19" transform="translate(31.000000, 146.000000)">
                
                <g id="编组" fill="currentColor">
                    <path d="M8.95519681,0.683772234 L10.1818182,4.36363636 L10.1818182,4.36363636 L0,4.36363636 L0,1 C-6.76353751e-17,0.44771525 0.44771525,3.23497668e-16 1,0 L8.00651351,0 C8.43694392,5.87065032e-16 8.81908276,0.275430095 8.95519681,0.683772234 Z M7.80981818,1.27272727 L1.27272727,1.27272727 L1.27272727,3.09090909 L8.416,3.09090909 L7.80981818,1.27272727 Z" id="矩形" fill-rule="nonzero"></path>
                    <path d="M16,4.09090909 L16,15 C16,15.5522847 15.5522847,16 15,16 L1,16 C0.44771525,16 6.76353751e-17,15.5522847 0,15 L0,4.09090909 C-6.76353751e-17,3.53862434 0.44771525,3.09090909 1,3.09090909 L15,3.09090909 C15.5522847,3.09090909 16,3.53862434 16,4.09090909 Z M14.7272727,4.36363636 L1.27272727,4.36363636 L1.27272727,14.7272727 L14.7272727,14.7272727 L14.7272727,4.36363636 Z" id="矩形" fill-rule="nonzero"></path>
                    
                    
                    
                    
                </g>
            </g>
        </g>
    </g>
</svg>