<?xml version="1.0" standalone="no"?><!DOCTYPE svg PUBLIC "-//W3C//DTD SVG 1.1//EN" "http://www.w3.org/Graphics/SVG/1.1/DTD/svg11.dtd"><svg width="16px" height="16px" viewBox="0 0 16 16" version="1.1" xmlns="http://www.w3.org/2000/svg" xmlns:xlink="http://www.w3.org/1999/xlink">
    <title>编组 20</title>
    
    <g id="页面-1" stroke="none" stroke-width="1" fill="none" fill-rule="evenodd">
        <g id="侧边栏图标切图" transform="translate(-31.000000, -194.000000)">
            
            <g id="Rectangle-8-Copy-2备份-12">
                <use fill="#303133" xlink:href="#path-1"></use>
                <use fill-opacity="0.04" fill="#FFFFFF" xlink:href="#path-1"></use>
            </g>
            <g id="编组-20" transform="translate(31.000000, 194.000000)">
                
                <g id="编组-4" transform="translate(0.500000, 0.000000)" fill="#FFFFFF">
                    <path d="M15,1 L15,15 C15,15.5522847 14.5522847,16 14,16 L1,16 C0.44771525,16 -1.5440923e-16,15.5522847 0,15 L0,1 C-6.76353751e-17,0.44771525 0.44771525,1.01453063e-16 1,0 L14,0 C14.5522847,-1.01453063e-16 15,0.44771525 15,1 Z M13.6875,1.27272727 L1.3125,1.27272727 L1.3125,14.7272727 L13.6875,14.7272727 L13.6875,1.27272727 Z" id="矩形" fill-rule="nonzero"></path>
                    <path d="M12.375,0 L12.375,5.41025021 C12.375,5.68639259 12.1511424,5.91025021 11.875,5.91025021 C11.804604,5.91025021 11.7350014,5.89538522 11.670747,5.86662802 L10.346006,5.27373696 C10.0860905,5.15741113 9.78890951,5.15741113 9.52899398,5.27373696 L8.20425301,5.86662802 C7.9522025,5.97943385 7.65642801,5.86655373 7.54362219,5.61450322 C7.51486499,5.55024886 7.5,5.48064623 7.5,5.41025021 L7.5,0 L7.5,0 L12.375,0 Z M11.0625,1.27272727 L8.8125,1.27272727 L8.8125,4.19272727 L9.9375,3.68916437 L11.0625,4.19290909 L11.0625,1.27272727 Z" id="矩形" fill-rule="nonzero"></path>
                    <rect id="矩形" x="2.625" y="8.36363636" width="5.25" height="1.27272727"></rect>
                    <rect id="矩形" x="2.625" y="11.0909091" width="9.75" height="1.27272727"></rect>
                </g>
            </g>
        </g>
    </g>
</svg>