<?xml version="1.0" standalone="no"?><!DOCTYPE svg PUBLIC "-//W3C//DTD SVG 1.1//EN" "http://www.w3.org/Graphics/SVG/1.1/DTD/svg11.dtd"><svg width="16px" height="16px" viewBox="0 0 16 16" version="1.1" xmlns="http://www.w3.org/2000/svg" xmlns:xlink="http://www.w3.org/1999/xlink">
    <title>编组 21</title>
    <g id="页面-1" stroke="none" stroke-width="1" fill="none" fill-rule="evenodd">
        <g id="侧边栏图标切图" transform="translate(-31.000000, -242.000000)">
            
            
            <g id="编组-21" transform="translate(31.000000, 242.000000)">
                
                <g id="编组-8" fill="#FFFFFF">
                    <path d="M13.0942036,0.707106781 L15.2928932,2.90579644 C15.6834175,3.29632074 15.6834175,3.92948572 15.2928932,4.32001001 L5.09439152,14.5185117 C4.96919498,14.6437082 4.81300307,14.7334202 4.64177804,14.7784795 L0.828921032,15.7818629 C0.561870772,15.8521393 0.288413498,15.6926225 0.218137114,15.4255723 C0.196186805,15.3421611 0.196186805,15.2544901 0.218137114,15.171079 L1.22152054,11.358222 C1.26657975,11.1869969 1.35629176,11.030805 1.48148829,10.9056085 L11.67999,0.707106781 C12.0705143,0.316582489 12.7036793,0.316582489 13.0942036,0.707106781 Z M12.3870909,1.8 L2.43345455,11.7536364 L1.786,14.214 L4.24636364,13.5665455 L14.2,3.61290909 L12.3870909,1.8 Z" id="矩形" fill-rule="nonzero"></path>
                    <rect id="矩形" x="6.90909091" y="14.7272727" width="9.09090909" height="1.27272727"></rect>
                </g>
            </g>
        </g>
    </g>
</svg>