<!DOCTYPE svg PUBLIC "-//W3C//DTD SVG 1.1//EN" "http://www.w3.org/Graphics/SVG/1.1/DTD/svg11.dtd"><svg width="16px" height="17px" viewBox="0 0 16 17" version="1.1" xmlns="http://www.w3.org/2000/svg" xmlns:xlink="http://www.w3.org/1999/xlink">
    <title>编组 22</title>
    
    <g id="页面-1" stroke="none" stroke-width="1" fill="currentColor" fill-rule="evenodd">
        <g id="侧边栏图标切图" transform="translate(-31.000000, -290.000000)">
            
            <g id="Rectangle-8-Copy-2备份-12">
                <use fill="#303133" xlink:href="#path-1"></use>
                <use fill-opacity="0.04" fill="#FFFFFF" xlink:href="#path-1"></use>
            </g>
            <g id="编组-22" transform="translate(31.000000, 290.000000)">
                
                <g id="编组-9" fill="currentColor" fill-rule="nonzero">
                    <path d="M14.9177595,0 C15.4700442,-1.01453063e-16 15.9177595,0.44771525 15.9177595,1 L15.9177595,5.40734237 L14.651,5.407 L14.6515741,1.26171322 L1.26618541,1.26171322 L1.26618541,14.5998244 L5.426,14.599 L5.42650892,15.8615376 L1,15.8615376 C0.44771525,15.8615376 2.8967998e-16,15.4138224 0,14.8615376 L0,1 C-6.76353751e-17,0.44771525 0.44771525,-3.42636147e-16 1,0 L14.9177595,0 Z" id="形状结合"></path>
                    <path d="M8.33437801,2.91202237 C11.3389396,2.89656665 13.7619224,5.31099145 13.7464119,8.30494082 C13.7306009,11.2988902 11.2822269,13.7386164 8.27766537,13.7543716 C5.27310383,13.7698273 2.850121,11.3554025 2.86563151,8.36145315 C2.88144253,5.36750378 5.32981647,2.92777755 8.33437801,2.91202237 Z M8.34100951,4.17379279 C6.03055939,4.18585093 4.1439752,6.06577167 4.1318173,8.36799782 C4.11994336,10.6600144 5.97095675,12.50449 8.27103387,12.4926583 C10.581484,12.480543 12.4680682,10.6006223 12.4802261,8.29839614 C12.4919807,6.0292997 10.6779206,4.19883823 8.40981396,4.17399195 L8.34100951,4.17379279 Z" id="椭圆形" transform="translate(8.306022, 8.333197) rotate(-45.000000) translate(-8.306022, -8.333197) "></path>
                    <path d="M13.8630927,10.97802 L13.8437276,14.6801453 C13.8418885,15.0317426 13.5573104,15.3163102 13.205713,15.3181364 C12.8588161,15.3199382 12.5761399,15.0401833 12.5743382,14.6932863 C12.5743268,14.6911037 12.5743269,14.6889211 12.5743383,14.6867384 L12.5937034,10.9846131 L12.5937034,10.9846131 L13.8630927,10.97802 Z" id="矩形" transform="translate(13.217056, 13.149726) rotate(-45.000000) translate(-13.217056, -13.149726) "></path>
                </g>
            </g>
        </g>
    </g>
</svg>