<!DOCTYPE svg PUBLIC "-//W3C//DTD SVG 1.1//EN" "http://www.w3.org/Graphics/SVG/1.1/DTD/svg11.dtd"><svg width="16px" height="16px" viewBox="0 0 16 16" version="1.1" xmlns="http://www.w3.org/2000/svg" xmlns:xlink="http://www.w3.org/1999/xlink">
    <title>编组 24</title>
    
    <g id="页面-1" stroke="none" stroke-width="1" fill="none" fill-rule="evenodd">
        <g id="侧边栏图标切图" transform="translate(-31.000000, -338.000000)">
            
            <g id="Rectangle-8-Copy-2备份-12">
                <use fill="#303133" xlink:href="#path-1"></use>
                <use fill-opacity="0.04" fill="#FFFFFF" xlink:href="#path-1"></use>
            </g>
            <g id="编组-24" transform="translate(31.000000, 338.000000)">
                
                <g id="编组-10" transform="translate(0.500000, 0.000000)" fill="#FFFFFF">
                    <path d="M14,1.09090909 C14.5522847,1.09090909 15,1.53862434 15,2.09090909 L15,15 C15,15.5522847 14.5522847,16 14,16 L1,16 C0.44771525,16 -1.5440923e-16,15.5522847 0,15 L0,2.09090909 C-6.76353751e-17,1.53862434 0.44771525,1.09090909 1,1.09090909 L4.125,1.09090909 L4.125,2.36290909 L1.3125,2.36363636 L1.3125,14.7272727 L13.6875,14.7272727 L13.6875,2.36363636 L10.875,2.36290909 L10.875,1.09090909 L14,1.09090909 Z" id="形状结合" fill-rule="nonzero"></path>
                    <path d="M10.875,1 L10.875,2.63636364 C10.875,3.18864839 10.4272847,3.63636364 9.875,3.63636364 L5.125,3.63636364 C4.57271525,3.63636364 4.125,3.18864839 4.125,2.63636364 L4.125,1 C4.125,0.44771525 4.57271525,1.01453063e-16 5.125,0 L9.875,0 C10.4272847,-1.01453063e-16 10.875,0.44771525 10.875,1 Z M9.5625,1.27272727 L5.4375,1.27272727 L5.4375,2.36363636 L9.5625,2.36363636 L9.5625,1.27272727 Z" id="矩形" fill-rule="nonzero"></path>
                    <path d="M6.421875,12 L3.65917969,9.30367505 C3.40493642,9.05553966 3.399985,8.64828129 3.64812039,8.39403802 C3.65176187,8.39030691 3.65544857,8.3866202 3.65917969,8.38297872 C3.92151587,8.12694485 4.34020288,8.12694485 4.60253906,8.38297872 L6.421875,10.1586074 L6.421875,10.1586074 L10.3974609,6.27852998 C10.6597971,6.02249611 11.0784841,6.02249611 11.3408203,6.27852998 C11.5950636,6.52666537 11.600015,6.93392374 11.3518796,7.18816701 C11.3482381,7.19189812 11.3445514,7.19558483 11.3408203,7.19922631 L6.421875,12 L6.421875,12 Z" id="路径"></path>
                </g>
            </g>
        </g>
    </g>
</svg>