<!DOCTYPE svg PUBLIC "-//W3C//DTD SVG 1.1//EN" "http://www.w3.org/Graphics/SVG/1.1/DTD/svg11.dtd"><svg width="16px" height="16px" viewBox="0 0 16 16" version="1.1" xmlns="http://www.w3.org/2000/svg" xmlns:xlink="http://www.w3.org/1999/xlink">
    <title>编组 25</title>
    
    <g id="页面-1" stroke="none" stroke-width="1" fill="currentColor" fill-rule="evenodd">
        <g id="侧边栏图标切图" transform="translate(-31.000000, -387.000000)">
            
            <g id="Rectangle-8-Copy-2备份-12">
                <use fill="#303133" xlink:href="#path-1"></use>
                <use fill-opacity="0.04" fill="#FFFFFF" xlink:href="#path-1"></use>
            </g>
            <g id="编组-25" transform="translate(31.000000, 387.000000)">
                
                <g id="编组-11" fill="currentColor">
                    <path d="M16,1 L16,15 C16,15.5522847 15.5522847,16 15,16 L1,16 C0.44771525,16 6.76353751e-17,15.5522847 0,15 L0,1 C-6.76353751e-17,0.44771525 0.44771525,1.01453063e-16 1,0 L15,0 C15.5522847,-1.01453063e-16 16,0.44771525 16,1 Z M14.7272727,1.27272727 L1.27272727,1.27272727 L1.27272727,14.7272727 L14.7272727,14.7272727 L14.7272727,1.27272727 Z" id="矩形" fill-rule="nonzero"></path>
                    <path d="M9.39865838,3.83047308 L13.0195865,3.90140803 C13.5641327,3.91207584 14,4.35656552 14,4.9012162 L14,8.2991699 C14,8.64598936 13.7188473,8.92714208 13.3720278,8.92714208 L13.3594771,8.92701665 L13.3594771,8.92701665 C13.0015749,8.91986216 12.7130659,8.63159672 12.7056092,8.27370071 L12.6611664,6.15247308 L8.07843137,10.6427657 C7.9767527,10.7423613 7.85068321,10.8021187 7.71973555,10.8220378 L7.62091503,10.8295075 C7.45570603,10.8295075 7.29049703,10.7672602 7.16339869,10.6427657 L5.13716643,8.65747308 L3.37254902,10.3866837 C3.11835234,10.6356728 2.71171302,10.6356728 2.45751634,10.3866837 C2.21001357,10.1442514 2.20590314,9.74708061 2.44833543,9.49957784 C2.45136398,9.49648595 2.45442445,9.49342548 2.45751634,9.49039693 L4.22222222,7.76184379 C4.45947246,7.529454 4.76311993,7.40551277 5.07119389,7.39002012 L5.20331592,7.39002012 C5.51138987,7.40551277 5.81503735,7.529454 6.05228758,7.76184379 L7.62116643,9.29847308 L11.8711664,5.13447308 L9.42479721,5.08552536 C9.07422116,5.07851732 8.79161785,4.79615258 8.78431373,4.44558259 C8.77738038,4.1128087 9.04152633,3.83742157 9.37430022,3.83048823 L9.39865838,3.83047308 L9.39865838,3.83047308 Z" id="形状结合"></path>
                    
                </g>
            </g>
        </g>
    </g>
</svg>