<?xml version="1.0" standalone="no"?><!DOCTYPE svg PUBLIC "-//W3C//DTD SVG 1.1//EN" "http://www.w3.org/Graphics/SVG/1.1/DTD/svg11.dtd"><svg width="16px" height="16px" viewBox="0 0 16 16" version="1.1" xmlns="http://www.w3.org/2000/svg" xmlns:xlink="http://www.w3.org/1999/xlink">
    <title>产品概述（非开发）-点击</title>
    <g id="页面-1" stroke="none" stroke-width="1" fill="none" fill-rule="evenodd">
        <g id="侧边栏图标切图" transform="translate(-31.000000, -98.000000)">
            <g id="产品概述（非开发）-点击" transform="translate(31.000000, 98.000000)">
                <g id="形状结合备份-20" transform="translate(0.000000, 0.147347)" fill="#FFFFFF" fill-rule="nonzero">
                    <path d="M13.778,10.1026525 L14.4505324,10.481077 C14.9318903,10.7518408 15.1026105,11.3615559 14.8318467,11.8429138 C14.7420579,12.0025382 14.6101569,12.1344393 14.4505324,12.2242281 L8.49026124,15.5768806 C8.1858477,15.7481132 7.8141523,15.7481132 7.50973876,15.5768806 L1.54946762,12.2242281 C1.06810974,11.9534642 0.897389518,11.3437492 1.16815332,10.8623913 C1.2579421,10.7027668 1.38984313,10.5708658 1.54946762,10.481077 L2.222,10.1026525 L3.496,10.8196525 L2.5495,11.3525275 L8,14.4184025 L13.450375,11.3525275 L12.503,10.8196525 L13.778,10.1026525 Z M13.778,6.60265252 L14.4505324,6.98107698 C14.9318903,7.25184078 15.1026105,7.86155588 14.8318467,8.34291376 C14.7420579,8.50253824 14.6101569,8.63443928 14.4505324,8.72422805 L8.49026124,12.0768806 C8.1858477,12.2481132 7.8141523,12.2481132 7.50973876,12.0768806 L1.54946762,8.72422805 C1.06810974,8.45346425 0.897389518,7.84374915 1.16815332,7.36239128 C1.2579421,7.20276679 1.38984313,7.07086575 1.54946762,6.98107698 L2.222,6.60265252 L3.497,7.31965252 L2.5495,7.85265252 L7.999875,10.9184025 L13.450375,7.85265252 L12.503,7.31965252 L13.778,6.60265252 Z M8.49026124,0.128424463 L14.4505324,3.48107698 C14.9318903,3.75184078 15.1026105,4.36155588 14.8318467,4.84291376 C14.7420579,5.00253824 14.6101569,5.13443928 14.4505324,5.22422805 L8.49026124,8.57688057 C8.1858477,8.74811319 7.8141523,8.74811319 7.50973876,8.57688057 L1.54946762,5.22422805 C1.06810974,4.95346425 0.897389518,4.34374915 1.16815332,3.86239128 C1.2579421,3.70276679 1.38984313,3.57086575 1.54946762,3.48107698 L7.50973876,0.128424463 C7.8141523,-0.0428081543 8.1858477,-0.0428081543 8.49026124,0.128424463 Z M8,1.28677752 L2.5495,4.35265252 L8,7.41840252 L13.450375,4.35265252 L8,1.28677752 Z" id="形状结合备份-15"></path>
                </g>
            </g>
        </g>
    </g>
</svg>