<?xml version="1.0" standalone="no"?><!DOCTYPE svg PUBLIC "-//W3C//DTD SVG 1.1//EN" "http://www.w3.org/Graphics/SVG/1.1/DTD/svg11.dtd"><svg t="1648200163853" class="icon" viewBox="0 0 1028 1024" version="1.1" xmlns="http://www.w3.org/2000/svg" p-id="3898" width="32.125" height="32" xmlns:xlink="http://www.w3.org/1999/xlink"><path d="M1024.007782 34.863813v631.533074c0 19.224903-15.638911 34.863813-34.863813 34.863813s-34.863813-15.638911-34.863813-34.863813V69.727626H69.735409v884.544748h596.66926c19.224903 0 34.863813 15.638911 34.863813 34.863813s-15.638911 34.863813-34.863813 34.863813H34.871595c-19.224903 0-34.863813-15.638911-34.863813-34.863813V34.863813C0.007782 15.638911 15.646693 0 34.871595 0h954.272374c19.224903 0 34.863813 15.638911 34.863813 34.863813z" p-id="3899"></path><path d="M555.836576 340.669261c29.086381 0 57.176654 5.677821 83.772763 16.933852 25.6 10.857588 48.610117 26.297276 68.333073 46.119844 19.822568 19.822568 35.262257 42.832685 46.119845 68.333074 11.256031 26.496498 16.933852 54.686381 16.933852 83.772763 0 29.086381-5.677821 57.176654-16.933852 83.772762-10.857588 25.6-26.297276 48.610117-46.119845 68.333074-19.822568 19.822568-42.832685 35.262257-68.333073 46.119845-26.496498 11.256031-54.686381 16.933852-83.772763 16.933852s-57.176654-5.677821-83.772763-16.933852c-25.6-10.857588-48.610117-26.297276-68.333074-46.119845-19.722957-19.822568-35.262257-42.832685-46.119844-68.333074-11.256031-26.496498-16.933852-54.686381-16.933852-83.772762s5.677821-57.176654 16.933852-83.772763c10.857588-25.6 26.297276-48.610117 46.119844-68.333074 19.822568-19.822568 42.832685-35.262257 68.333074-46.119844 26.596109-11.256031 54.686381-16.933852 83.772763-16.933852m0-49.108172c-145.929961 0-264.267704 118.337743-264.267704 264.267705S409.906615 820.196109 555.836576 820.196109 820.10428 701.858366 820.10428 555.828794 701.766537 291.561089 555.836576 291.561089z" p-id="3900"></path><path d="M484.216342 387.087938c6.175875-6.175875 12.650584-11.953307 19.324514-17.232685-26.197665 9.562646-50.701946 24.803113-71.719844 45.821012-76.999222 76.999222-76.999222 202.010895 0 279.010116 23.308949 23.308949 51.000778 39.545525 80.286381 48.709728-9.761868-7.072374-19.125292-15.140856-27.891051-23.906615-91.741634-91.841245-91.741634-240.659922 0-332.401556zM992.331518 992.423346c-24.006226 24.006226-63.352529 24.006226-87.358755 0L728.362646 815.713619c-24.006226-24.006226-24.006226-63.352529 0-87.358755s63.352529-24.006226 87.358755 0l176.709727 176.709727c24.006226 24.006226 24.006226 63.352529-0.09961 87.358755z" p-id="3901"></path></svg>