<svg xmlns="http://www.w3.org/2000/svg" xmlns:xlink="http://www.w3.org/1999/xlink" width="0" height="0" style="display:none;"><symbol viewBox="0 0 16 16" id="menu-19">
    <title>编组 19</title>
    
    <g id="页面-1" stroke="none" stroke-width="1" fill="none" fill-rule="evenodd">
        <g id="侧边栏图标切图" transform="translate(-31.000000, -146.000000)">
            
            <g id="Rectangle-8-Copy-2备份-12">
                <use fill="#303133" xlink:href="#path-1"></use>
                <use fill-opacity="0.04" fill="#FFFFFF" xlink:href="#path-1"></use>
            </g>
            <g id="编组-19" transform="translate(31.000000, 146.000000)">
                
                <g id="编组" fill="#FFFFFF">
                    <path d="M8.95519681,0.683772234 L10.1818182,4.36363636 L10.1818182,4.36363636 L0,4.36363636 L0,1 C-6.76353751e-17,0.44771525 0.44771525,3.23497668e-16 1,0 L8.00651351,0 C8.43694392,5.87065032e-16 8.81908276,0.275430095 8.95519681,0.683772234 Z M7.80981818,1.27272727 L1.27272727,1.27272727 L1.27272727,3.09090909 L8.416,3.09090909 L7.80981818,1.27272727 Z" id="矩形" fill-rule="nonzero"></path>
                    <path d="M16,4.09090909 L16,15 C16,15.5522847 15.5522847,16 15,16 L1,16 C0.44771525,16 6.76353751e-17,15.5522847 0,15 L0,4.09090909 C-6.76353751e-17,3.53862434 0.44771525,3.09090909 1,3.09090909 L15,3.09090909 C15.5522847,3.09090909 16,3.53862434 16,4.09090909 Z M14.7272727,4.36363636 L1.27272727,4.36363636 L1.27272727,14.7272727 L14.7272727,14.7272727 L14.7272727,4.36363636 Z" id="矩形" fill-rule="nonzero"></path>
                    <rect id="矩形" x="2.90909091" y="7.09090909" width="1.27272727" height="1.27272727" fill="none"></rect>
                    <rect id="矩形" x="5.45454545" y="7.09090909" width="7.63636364" height="1.27272727" fill="none"></rect>
                    <rect id="矩形" x="2.90909091" y="10.5454545" width="1.27272727" height="1.27272727" fill="none"></rect>
                    <rect id="矩形" x="5.45454545" y="10.5454545" width="7.63636364" height="1.27272727" fill="none"></rect>
                </g>
            </g>
        </g>
    </g>
</symbol><symbol viewBox="0 0 16 16" id="menu-20">
    <title>编组 20</title>
    
    <g id="页面-1" stroke="none" stroke-width="1" fill="none" fill-rule="evenodd">
        <g id="侧边栏图标切图" transform="translate(-31.000000, -194.000000)">
            
            <g id="Rectangle-8-Copy-2备份-12">
                <use fill="#303133" xlink:href="#path-1"></use>
                <use fill-opacity="0.04" fill="#FFFFFF" xlink:href="#path-1"></use>
            </g>
            <g id="编组-20" transform="translate(31.000000, 194.000000)">
                
                <g id="编组-4" transform="translate(0.500000, 0.000000)" fill="#FFFFFF">
                    <path d="M15,1 L15,15 C15,15.5522847 14.5522847,16 14,16 L1,16 C0.44771525,16 -1.5440923e-16,15.5522847 0,15 L0,1 C-6.76353751e-17,0.44771525 0.44771525,1.01453063e-16 1,0 L14,0 C14.5522847,-1.01453063e-16 15,0.44771525 15,1 Z M13.6875,1.27272727 L1.3125,1.27272727 L1.3125,14.7272727 L13.6875,14.7272727 L13.6875,1.27272727 Z" id="矩形" fill-rule="nonzero"></path>
                    <path d="M12.375,0 L12.375,5.41025021 C12.375,5.68639259 12.1511424,5.91025021 11.875,5.91025021 C11.804604,5.91025021 11.7350014,5.89538522 11.670747,5.86662802 L10.346006,5.27373696 C10.0860905,5.15741113 9.78890951,5.15741113 9.52899398,5.27373696 L8.20425301,5.86662802 C7.9522025,5.97943385 7.65642801,5.86655373 7.54362219,5.61450322 C7.51486499,5.55024886 7.5,5.48064623 7.5,5.41025021 L7.5,0 L7.5,0 L12.375,0 Z M11.0625,1.27272727 L8.8125,1.27272727 L8.8125,4.19272727 L9.9375,3.68916437 L11.0625,4.19290909 L11.0625,1.27272727 Z" id="矩形" fill-rule="nonzero"></path>
                    <rect id="矩形" x="2.625" y="8.36363636" width="5.25" height="1.27272727" fill="none"></rect>
                    <rect id="矩形" x="2.625" y="11.0909091" width="9.75" height="1.27272727" fill="none"></rect>
                </g>
            </g>
        </g>
    </g>
</symbol><symbol viewBox="0 0 16 16" id="menu-21">
    <title>编组 21</title>
    <g id="页面-1" stroke="none" stroke-width="1" fill="none" fill-rule="evenodd">
        <g id="侧边栏图标切图" transform="translate(-31.000000, -242.000000)">
            
            
            <g id="编组-21" transform="translate(31.000000, 242.000000)">
                
                <g id="编组-8" fill="#FFFFFF">
                    <path d="M13.0942036,0.707106781 L15.2928932,2.90579644 C15.6834175,3.29632074 15.6834175,3.92948572 15.2928932,4.32001001 L5.09439152,14.5185117 C4.96919498,14.6437082 4.81300307,14.7334202 4.64177804,14.7784795 L0.828921032,15.7818629 C0.561870772,15.8521393 0.288413498,15.6926225 0.218137114,15.4255723 C0.196186805,15.3421611 0.196186805,15.2544901 0.218137114,15.171079 L1.22152054,11.358222 C1.26657975,11.1869969 1.35629176,11.030805 1.48148829,10.9056085 L11.67999,0.707106781 C12.0705143,0.316582489 12.7036793,0.316582489 13.0942036,0.707106781 Z M12.3870909,1.8 L2.43345455,11.7536364 L1.786,14.214 L4.24636364,13.5665455 L14.2,3.61290909 L12.3870909,1.8 Z" id="矩形" fill-rule="nonzero"></path>
                    <rect id="矩形" x="6.90909091" y="14.7272727" width="9.09090909" height="1.27272727" fill="none"></rect>
                </g>
            </g>
        </g>
    </g>
</symbol><symbol viewBox="0 0 16 17" id="menu-22">
    <title>编组 22</title>
    
    <g id="页面-1" stroke="none" stroke-width="1" fill="none" fill-rule="evenodd">
        <g id="侧边栏图标切图" transform="translate(-31.000000, -290.000000)">
            
            <g id="Rectangle-8-Copy-2备份-12">
                <use fill="#303133" xlink:href="#path-1"></use>
                <use fill-opacity="0.04" fill="#FFFFFF" xlink:href="#path-1"></use>
            </g>
            <g id="编组-22" transform="translate(31.000000, 290.000000)">
                
                <g id="编组-9" fill="#FFFFFF" fill-rule="nonzero">
                    <path d="M14.9177595,0 C15.4700442,-1.01453063e-16 15.9177595,0.44771525 15.9177595,1 L15.9177595,5.40734237 L14.651,5.407 L14.6515741,1.26171322 L1.26618541,1.26171322 L1.26618541,14.5998244 L5.426,14.599 L5.42650892,15.8615376 L1,15.8615376 C0.44771525,15.8615376 2.8967998e-16,15.4138224 0,14.8615376 L0,1 C-6.76353751e-17,0.44771525 0.44771525,-3.42636147e-16 1,0 L14.9177595,0 Z" id="形状结合"></path>
                    <path d="M8.33437801,2.91202237 C11.3389396,2.89656665 13.7619224,5.31099145 13.7464119,8.30494082 C13.7306009,11.2988902 11.2822269,13.7386164 8.27766537,13.7543716 C5.27310383,13.7698273 2.850121,11.3554025 2.86563151,8.36145315 C2.88144253,5.36750378 5.32981647,2.92777755 8.33437801,2.91202237 Z M8.34100951,4.17379279 C6.03055939,4.18585093 4.1439752,6.06577167 4.1318173,8.36799782 C4.11994336,10.6600144 5.97095675,12.50449 8.27103387,12.4926583 C10.581484,12.480543 12.4680682,10.6006223 12.4802261,8.29839614 C12.4919807,6.0292997 10.6779206,4.19883823 8.40981396,4.17399195 L8.34100951,4.17379279 Z" id="椭圆形" transform="translate(8.306022, 8.333197) rotate(-45.000000) translate(-8.306022, -8.333197) "></path>
                    <path d="M13.8630927,10.97802 L13.8437276,14.6801453 C13.8418885,15.0317426 13.5573104,15.3163102 13.205713,15.3181364 C12.8588161,15.3199382 12.5761399,15.0401833 12.5743382,14.6932863 C12.5743268,14.6911037 12.5743269,14.6889211 12.5743383,14.6867384 L12.5937034,10.9846131 L12.5937034,10.9846131 L13.8630927,10.97802 Z" id="矩形" transform="translate(13.217056, 13.149726) rotate(-45.000000) translate(-13.217056, -13.149726) "></path>
                </g>
            </g>
        </g>
    </g>
</symbol><symbol viewBox="0 0 16 16" id="menu-24">
    <title>编组 24</title>
    
    <g id="页面-1" stroke="none" stroke-width="1" fill="none" fill-rule="evenodd">
        <g id="侧边栏图标切图" transform="translate(-31.000000, -338.000000)">
            
            <g id="Rectangle-8-Copy-2备份-12">
                <use fill="#303133" xlink:href="#path-1"></use>
                <use fill-opacity="0.04" fill="#FFFFFF" xlink:href="#path-1"></use>
            </g>
            <g id="编组-24" transform="translate(31.000000, 338.000000)">
                
                <g id="编组-10" transform="translate(0.500000, 0.000000)" fill="#FFFFFF">
                    <path d="M14,1.09090909 C14.5522847,1.09090909 15,1.53862434 15,2.09090909 L15,15 C15,15.5522847 14.5522847,16 14,16 L1,16 C0.44771525,16 -1.5440923e-16,15.5522847 0,15 L0,2.09090909 C-6.76353751e-17,1.53862434 0.44771525,1.09090909 1,1.09090909 L4.125,1.09090909 L4.125,2.36290909 L1.3125,2.36363636 L1.3125,14.7272727 L13.6875,14.7272727 L13.6875,2.36363636 L10.875,2.36290909 L10.875,1.09090909 L14,1.09090909 Z" id="形状结合" fill-rule="nonzero"></path>
                    <path d="M10.875,1 L10.875,2.63636364 C10.875,3.18864839 10.4272847,3.63636364 9.875,3.63636364 L5.125,3.63636364 C4.57271525,3.63636364 4.125,3.18864839 4.125,2.63636364 L4.125,1 C4.125,0.44771525 4.57271525,1.01453063e-16 5.125,0 L9.875,0 C10.4272847,-1.01453063e-16 10.875,0.44771525 10.875,1 Z M9.5625,1.27272727 L5.4375,1.27272727 L5.4375,2.36363636 L9.5625,2.36363636 L9.5625,1.27272727 Z" id="矩形" fill-rule="nonzero"></path>
                    <path d="M6.421875,12 L3.65917969,9.30367505 C3.40493642,9.05553966 3.399985,8.64828129 3.64812039,8.39403802 C3.65176187,8.39030691 3.65544857,8.3866202 3.65917969,8.38297872 C3.92151587,8.12694485 4.34020288,8.12694485 4.60253906,8.38297872 L6.421875,10.1586074 L6.421875,10.1586074 L10.3974609,6.27852998 C10.6597971,6.02249611 11.0784841,6.02249611 11.3408203,6.27852998 C11.5950636,6.52666537 11.600015,6.93392374 11.3518796,7.18816701 C11.3482381,7.19189812 11.3445514,7.19558483 11.3408203,7.19922631 L6.421875,12 L6.421875,12 Z" id="路径"></path>
                </g>
            </g>
        </g>
    </g>
</symbol><symbol viewBox="0 0 16 16" id="menu-25">
    <title>编组 25</title>
    
    <g id="页面-1" stroke="none" stroke-width="1" fill="none" fill-rule="evenodd">
        <g id="侧边栏图标切图" transform="translate(-31.000000, -387.000000)">
            
            <g id="Rectangle-8-Copy-2备份-12">
                <use fill="#303133" xlink:href="#path-1"></use>
                <use fill-opacity="0.04" fill="#FFFFFF" xlink:href="#path-1"></use>
            </g>
            <g id="编组-25" transform="translate(31.000000, 387.000000)">
                
                <g id="编组-11" fill="#FFFFFF">
                    <path d="M16,1 L16,15 C16,15.5522847 15.5522847,16 15,16 L1,16 C0.44771525,16 6.76353751e-17,15.5522847 0,15 L0,1 C-6.76353751e-17,0.44771525 0.44771525,1.01453063e-16 1,0 L15,0 C15.5522847,-1.01453063e-16 16,0.44771525 16,1 Z M14.7272727,1.27272727 L1.27272727,1.27272727 L1.27272727,14.7272727 L14.7272727,14.7272727 L14.7272727,1.27272727 Z" id="矩形" fill-rule="nonzero"></path>
                    <path d="M9.39865838,3.83047308 L13.0195865,3.90140803 C13.5641327,3.91207584 14,4.35656552 14,4.9012162 L14,8.2991699 C14,8.64598936 13.7188473,8.92714208 13.3720278,8.92714208 L13.3594771,8.92701665 L13.3594771,8.92701665 C13.0015749,8.91986216 12.7130659,8.63159672 12.7056092,8.27370071 L12.6611664,6.15247308 L8.07843137,10.6427657 C7.9767527,10.7423613 7.85068321,10.8021187 7.71973555,10.8220378 L7.62091503,10.8295075 C7.45570603,10.8295075 7.29049703,10.7672602 7.16339869,10.6427657 L5.13716643,8.65747308 L3.37254902,10.3866837 C3.11835234,10.6356728 2.71171302,10.6356728 2.45751634,10.3866837 C2.21001357,10.1442514 2.20590314,9.74708061 2.44833543,9.49957784 C2.45136398,9.49648595 2.45442445,9.49342548 2.45751634,9.49039693 L4.22222222,7.76184379 C4.45947246,7.529454 4.76311993,7.40551277 5.07119389,7.39002012 L5.20331592,7.39002012 C5.51138987,7.40551277 5.81503735,7.529454 6.05228758,7.76184379 L7.62116643,9.29847308 L11.8711664,5.13447308 L9.42479721,5.08552536 C9.07422116,5.07851732 8.79161785,4.79615258 8.78431373,4.44558259 C8.77738038,4.1128087 9.04152633,3.83742157 9.37430022,3.83048823 L9.39865838,3.83047308 L9.39865838,3.83047308 Z" id="形状结合"></path>
                    <rect id="矩形" x="2" y="12.3636364" width="12" height="1.27272727" fill="none"></rect>
                </g>
            </g>
        </g>
    </g>
</symbol><symbol viewBox="0 0 16 16" id="menu-click">
    <title>产品概述（非开发）-点击</title>
    <g id="页面-1" stroke="none" stroke-width="1" fill="none" fill-rule="evenodd">
        <g id="侧边栏图标切图" transform="translate(-31.000000, -98.000000)">
            <g id="产品概述（非开发）-点击" transform="translate(31.000000, 98.000000)">
                <g id="形状结合备份-20" transform="translate(0.000000, 0.147347)" fill="#FFFFFF" fill-rule="nonzero">
                    <path d="M13.778,10.1026525 L14.4505324,10.481077 C14.9318903,10.7518408 15.1026105,11.3615559 14.8318467,11.8429138 C14.7420579,12.0025382 14.6101569,12.1344393 14.4505324,12.2242281 L8.49026124,15.5768806 C8.1858477,15.7481132 7.8141523,15.7481132 7.50973876,15.5768806 L1.54946762,12.2242281 C1.06810974,11.9534642 0.897389518,11.3437492 1.16815332,10.8623913 C1.2579421,10.7027668 1.38984313,10.5708658 1.54946762,10.481077 L2.222,10.1026525 L3.496,10.8196525 L2.5495,11.3525275 L8,14.4184025 L13.450375,11.3525275 L12.503,10.8196525 L13.778,10.1026525 Z M13.778,6.60265252 L14.4505324,6.98107698 C14.9318903,7.25184078 15.1026105,7.86155588 14.8318467,8.34291376 C14.7420579,8.50253824 14.6101569,8.63443928 14.4505324,8.72422805 L8.49026124,12.0768806 C8.1858477,12.2481132 7.8141523,12.2481132 7.50973876,12.0768806 L1.54946762,8.72422805 C1.06810974,8.45346425 0.897389518,7.84374915 1.16815332,7.36239128 C1.2579421,7.20276679 1.38984313,7.07086575 1.54946762,6.98107698 L2.222,6.60265252 L3.497,7.31965252 L2.5495,7.85265252 L7.999875,10.9184025 L13.450375,7.85265252 L12.503,7.31965252 L13.778,6.60265252 Z M8.49026124,0.128424463 L14.4505324,3.48107698 C14.9318903,3.75184078 15.1026105,4.36155588 14.8318467,4.84291376 C14.7420579,5.00253824 14.6101569,5.13443928 14.4505324,5.22422805 L8.49026124,8.57688057 C8.1858477,8.74811319 7.8141523,8.74811319 7.50973876,8.57688057 L1.54946762,5.22422805 C1.06810974,4.95346425 0.897389518,4.34374915 1.16815332,3.86239128 C1.2579421,3.70276679 1.38984313,3.57086575 1.54946762,3.48107698 L7.50973876,0.128424463 C7.8141523,-0.0428081543 8.1858477,-0.0428081543 8.49026124,0.128424463 Z M8,1.28677752 L2.5495,4.35265252 L8,7.41840252 L13.450375,4.35265252 L8,1.28677752 Z" id="形状结合备份-15"></path>
                </g>
            </g>
        </g>
    </g>
</symbol><symbol viewBox="0 0 1024 1024" id="menu-user"><path d="M518.826667 588.8c-131.413333 0-238.933333-107.52-238.933334-238.933333s107.52-238.933333 238.933334-238.933334 238.933333 107.52 238.933333 238.933334-107.52 238.933333-238.933333 238.933333z m0-409.6c-93.866667 0-170.666667 76.8-170.666667 170.666667s76.8 170.666667 170.666667 170.666666 170.666667-76.8 170.666666-170.666666-76.8-170.666667-170.666666-170.666667z" fill="#3793DF" p-id="5209"></path><path d="M112.64 913.066667h-6.826667c-18.773333-3.413333-30.72-22.186667-25.6-40.96 10.24-42.666667 25.6-85.333333 47.786667-122.88 80.213333-138.24 225.28-221.866667 384-221.866667 160.426667 0 303.786667 83.626667 384 221.866667 18.773333 34.133333 32.426667 68.266667 44.373333 104.106666 5.12 18.773333-5.12 37.546667-22.186666 42.666667-18.773333 5.12-37.546667-5.12-42.666667-22.186667-10.24-32.426667-22.186667-61.44-37.546667-90.453333-68.266667-117.76-189.44-187.733333-325.973333-187.733333s-257.706667 69.973333-325.973333 187.733333c-18.773333 30.72-32.426667 66.56-40.96 102.4-1.706667 17.066667-17.066667 27.306667-32.426667 27.306667z" fill="#3793DF" p-id="5210"></path><path d="M911.36 537.6h-136.533333c-18.773333 0-34.133333-15.36-34.133334-34.133333s15.36-34.133333 34.133334-34.133334h136.533333c18.773333 0 34.133333 15.36 34.133333 34.133334s-15.36 34.133333-34.133333 34.133333zM911.36 435.2h-102.4c-18.773333 0-34.133333-15.36-34.133333-34.133333s15.36-34.133333 34.133333-34.133334h102.4c18.773333 0 34.133333 15.36 34.133333 34.133334s-15.36 34.133333-34.133333 34.133333zM911.36 640h-68.266667c-18.773333 0-34.133333-15.36-34.133333-34.133333s15.36-34.133333 34.133333-34.133334h68.266667c18.773333 0 34.133333 15.36 34.133333 34.133334s-15.36 34.133333-34.133333 34.133333z" fill="#EB4AF4" p-id="5211"></path></symbol><symbol viewBox="0 0 1028 1024" id="menu-View"><path d="M1024.007782 34.863813v631.533074c0 19.224903-15.638911 34.863813-34.863813 34.863813s-34.863813-15.638911-34.863813-34.863813V69.727626H69.735409v884.544748h596.66926c19.224903 0 34.863813 15.638911 34.863813 34.863813s-15.638911 34.863813-34.863813 34.863813H34.871595c-19.224903 0-34.863813-15.638911-34.863813-34.863813V34.863813C0.007782 15.638911 15.646693 0 34.871595 0h954.272374c19.224903 0 34.863813 15.638911 34.863813 34.863813z" p-id="3899"></path><path d="M555.836576 340.669261c29.086381 0 57.176654 5.677821 83.772763 16.933852 25.6 10.857588 48.610117 26.297276 68.333073 46.119844 19.822568 19.822568 35.262257 42.832685 46.119845 68.333074 11.256031 26.496498 16.933852 54.686381 16.933852 83.772763 0 29.086381-5.677821 57.176654-16.933852 83.772762-10.857588 25.6-26.297276 48.610117-46.119845 68.333074-19.822568 19.822568-42.832685 35.262257-68.333073 46.119845-26.496498 11.256031-54.686381 16.933852-83.772763 16.933852s-57.176654-5.677821-83.772763-16.933852c-25.6-10.857588-48.610117-26.297276-68.333074-46.119845-19.722957-19.822568-35.262257-42.832685-46.119844-68.333074-11.256031-26.496498-16.933852-54.686381-16.933852-83.772762s5.677821-57.176654 16.933852-83.772763c10.857588-25.6 26.297276-48.610117 46.119844-68.333074 19.822568-19.822568 42.832685-35.262257 68.333074-46.119844 26.596109-11.256031 54.686381-16.933852 83.772763-16.933852m0-49.108172c-145.929961 0-264.267704 118.337743-264.267704 264.267705S409.906615 820.196109 555.836576 820.196109 820.10428 701.858366 820.10428 555.828794 701.766537 291.561089 555.836576 291.561089z" p-id="3900"></path><path d="M484.216342 387.087938c6.175875-6.175875 12.650584-11.953307 19.324514-17.232685-26.197665 9.562646-50.701946 24.803113-71.719844 45.821012-76.999222 76.999222-76.999222 202.010895 0 279.010116 23.308949 23.308949 51.000778 39.545525 80.286381 48.709728-9.761868-7.072374-19.125292-15.140856-27.891051-23.906615-91.741634-91.841245-91.741634-240.659922 0-332.401556zM992.331518 992.423346c-24.006226 24.006226-63.352529 24.006226-87.358755 0L728.362646 815.713619c-24.006226-24.006226-24.006226-63.352529 0-87.358755s63.352529-24.006226 87.358755 0l176.709727 176.709727c24.006226 24.006226 24.006226 63.352529-0.09961 87.358755z" p-id="3901"></path></symbol><symbol viewBox="0 0 1024 1024" id="menu-雪花"><path d="M888.650667 639.637333a16 16 0 0 1-12.682667 18.741334l-72.117333 13.909333 17.28 64.490667a16 16 0 0 1-30.912 8.277333l-21.728-81.088a16 16 0 0 1 12.426666-19.84l88.992-17.173333a16 16 0 0 1 18.741334 12.693333zM249.728 338.346667a16 16 0 0 1-9.344 18.922666l-69.226667 28.576a16 16 0 0 1-12.213333-29.578666l56.245333-23.221334-16.426666-61.28a16 16 0 0 1 30.912-8.277333l20.053333 74.848zM817.482667 251.968a16 16 0 0 1 9.813333 20.384l-24.277333 69.333333 64.426666 17.514667a16 16 0 1 1-8.394666 30.88l-81.013334-22.037333a16 16 0 0 1-10.901333-20.725334l29.962667-85.546666a16 16 0 0 1 20.384-9.813334zM235.594667 652.48a16 16 0 0 1 11.648 17.6l-10.133334 74.197333a16 16 0 0 1-31.712-4.330666l8.245334-60.288-61.226667-16.64a16 16 0 1 1 8.405333-30.88l74.773334 20.330666zM443.754667 118.901333a16 16 0 0 1 22.570666 1.610667l48.106667 55.509333 47.210667-47.210666a16 16 0 1 1 22.624 22.634666l-59.36 59.36a16 16 0 0 1-23.402667-0.842666l-59.36-68.48a16 16 0 0 1 1.6-22.581334zM502.282667 822.869333a16 16 0 0 1 21.066666-1.365333l59.36 45.664a16 16 0 1 1-19.52 25.365333l-48.213333-37.098666-44.864 44.864a16 16 0 1 1-22.624-22.634667l54.794667-54.794667z" fill="#75C4FE" p-id="8784"></path><path d="M901.28 727.573333a21.333333 21.333333 0 0 1-29.141333 7.808L140.565333 313.013333a21.333333 21.333333 0 1 1 21.333334-36.949333l731.573333 422.368a21.333333 21.333333 0 0 1 7.808 29.141333z" fill="#43AEFC" p-id="8785"></path><path d="M864.533333 566.496a21.333333 21.333333 0 0 1-13.226666 27.114667L736 633.28l14.336 118.890667a21.333333 21.333333 0 0 1-42.368 5.098666l-16.384-136a21.333333 21.333333 0 0 1 14.24-22.72l131.594667-45.290666a21.333333 21.333333 0 0 1 27.114666 13.226666zM342.4 389.706667a21.333333 21.333333 0 0 1-12.896 22.677333l-111.210667 46.506667a21.333333 21.333333 0 1 1-16.458666-39.36l96.010666-40.16-16.362666-115.733334a21.333333 21.333333 0 1 1 42.24-5.973333l18.677333 132.053333zM899.84 285.301333a21.333333 21.333333 0 0 1-7.925333 29.109334L158.773333 734.048a21.333333 21.333333 0 0 1-21.194666-37.024L870.72 277.376a21.333333 21.333333 0 0 1 29.12 7.914667z" fill="#43AEFC" p-id="8786"></path><path d="M742.154667 235.989333a21.333333 21.333333 0 0 1 16.768 25.077334l-23.733334 119.605333 109.952 47.456a21.333333 21.333333 0 1 1-16.906666 39.168l-125.770667-54.272a21.333333 21.333333 0 0 1-12.48-23.744l27.093333-136.512a21.333333 21.333333 0 0 1 25.066667-16.778667zM326.634667 598.24A21.333333 21.333333 0 0 1 339.733333 620.8l-15.765333 119.509333a21.333333 21.333333 0 1 1-42.304-5.578666l13.621333-103.178667-108.256-44.106667a21.333333 21.333333 0 0 1 16.106667-39.509333l123.498667 50.314667zM513.6 64a21.333333 21.333333 0 0 1 21.333333 21.333333v844.746667a21.333333 21.333333 0 1 1-42.666666 0V85.333333a21.333333 21.333333 0 0 1 21.333333-21.333333z" fill="#43AEFC" p-id="8787"></path><path d="M392.469333 176.362667a21.333333 21.333333 0 0 1 30.101334-2.101334l92.010666 80 95.797334-71.84a21.333333 21.333333 0 0 1 25.6 34.133334L526.4 298.752a21.333333 21.333333 0 0 1-26.794667-0.970667l-105.024-91.328a21.333333 21.333333 0 0 1-2.101333-30.090666zM500.448 716.928a21.333333 21.333333 0 0 1 26.069333-0.170667l95.893334 73.066667a21.333333 21.333333 0 0 1-25.856 33.930667l-82.784-63.072-92.053334 72.042666a21.333333 21.333333 0 1 1-26.293333-33.6l105.024-82.197333z" fill="#43AEFC" p-id="8788"></path><path d="M388.16 295.530667a21.333333 21.333333 0 0 1 19.2-1.696l107.274667 42.912 116.181333-34.421334a21.333333 21.333333 0 0 1 27.082667 16.8l17.045333 98.026667 77.034667 72.757333a21.333333 21.333333 0 0 1-0.426667 31.413334l-81.866667 73.258666-30.378666 121.493334a21.333333 21.333333 0 0 1-29.194667 14.4L512.448 688l-106.506667 34.08a21.333333 21.333333 0 0 1-27.776-18.688l-8.309333-107.978667-100.448-62.773333a21.333333 21.333333 0 0 1-1.493333-35.157333l101.866666-76.394667 8.384-109.088a21.333333 21.333333 0 0 1 9.994667-16.48z m30.325333 48.704l-6.912 89.770666a21.333333 21.333333 0 0 1-8.469333 15.424l-84.693333 63.530667 83.2 52a21.333333 21.333333 0 0 1 9.962666 16.448l7.061334 91.818667 88.458666-28.309334a21.333333 21.333333 0 0 1 15.008 0.757334l81.92 35.626666 25.856-103.424a21.333333 21.333333 0 0 1 6.474667-10.730666l69.461333-62.144-65.312-61.696a21.333333 21.333333 0 0 1-6.378666-11.850667l-14.154667-81.418667-100.32 29.717334a21.333333 21.333333 0 0 1-13.973333-0.64l-87.189334-34.88z" fill="#43AEFC" p-id="8789"></path><path d="M513.216 343.306667a16 16 0 0 1 14.517333 8.512l36.085334 68.16 85.248-8.106667a16 16 0 0 1 15.498666 23.690667l-40.928 73.664 40.256 60.373333a16 16 0 0 1-13.312 24.885333h-85.76l-36.768 77.6a16 16 0 0 1-28.938666-0.032l-32.714667-69.525333-73.290667-8.149333a16 16 0 0 1-11.552-24.768l39.744-59.626667-48.874666-73.312a16 16 0 0 1 14.901333-24.8l80.074667 8.010667 31.712-67.392a16 16 0 0 1 14.101333-9.173334z m1.216 51.786666l-22.890667 48.64a16 16 0 0 1-16.074666 9.12l-57.642667-5.76 36.021333 54.016a16 16 0 0 1 0 17.76l-31.072 46.613334 56.053334 6.229333a16 16 0 0 1 12.714666 9.088l22.101334 46.965333 26.581333-56.138666a16 16 0 0 1 14.464-9.141334h65.994667l-29.077334-43.626666a16 16 0 0 1-0.672-16.64l30.890667-55.605334-65.621333 6.24a16 16 0 0 1-15.658667-8.437333l-26.112-49.322667z" fill="#75C4FE" p-id="8790"></path></symbol></svg>